<?xml version='1.0' encoding='utf-8'?>
<svg xmlns="http://www.w3.org/2000/svg" data-name="Layer 1" viewBox="0 0 1e3 1e3"> <defs> <style>.cls-1 { fill: #d6e5f0; } .cls-2 { fill: url(#a); } .cls-3 { fill: #296b90; } .cls-4 { fill: #9eb1c9; } .cls-5 { fill: #f05824; } .cls-6 { fill: #fcc718; } .cls-7 { fill: #387d9f; } .cls-8 { fill: #e0e0e0; } .cls-9 { fill: #70cbf3; } .cls-10 { fill: #4f2e26; } .cls-11 { fill: #435462; } .cls-12 { fill: #d68653; } .cls-13 { fill: #f9be84; } .cls-14 { fill: #432f28; } .cls-15 { fill: #8e5d4e; } .cls-16 { fill: #f1a664; } .cls-17 { fill: #724638; } .cls-18 { fill: url(#b); } .cls-19 { fill: #fffffe; } .cls-20 { fill: #5a6875; } .cls-21 { fill: #2f3d4c; }</style> <linearGradient id="b" x1="890.44" x2="867.94" y1="503.74" y2="802.57" gradientUnits="userSpaceOnUse"> <stop stop-color="#24658b" offset="0"/> <stop stop-color="#4da1c8" offset=".46"/> <stop stop-color="#6fcaee" offset="1"/> </linearGradient> <linearGradient id="a" x1="114.59" x2="126.69" y1="504.34" y2="799.9" gradientUnits="userSpaceOnUse"> <stop stop-color="#25688e" offset="0"/> <stop stop-color="#6ec9ee" offset="1"/> </linearGradient> </defs> <g data-name="Generative Object"> <path class="cls-1" d="M500,48.77v33.94c-57.07.12-123.37,15.14-175.06,38.79-130.91,59.91-225.35,191.61-238.1,335.57l-34.91-1.94C73.33,223.67,267.38,48.99,500,48.77Z"/> <path class="cls-1" d="M948.07,454.16l-34.91.97c-20.71-209.91-201.89-372.86-413.15-372.42v-33.94c234.6-.22,423.96,173.56,448.07,405.39Z"/> <path class="cls-18" d="M950.98,499.74c-.55,123.35-47.79,242.83-139.66,325.87,3.33-9.19.6-35.7-1.94-45.58-.32-1.25-.64-1.88-.97-2.91,35.22-36.03,63.1-82.71,80.5-129.96,16.61-45.11,27.26-99.18,27.16-147.42h34.91Z"/> <path class="cls-2" d="M84.91,530.78c-.05,3.38.03,6.79,0,10.18l1.94-1.45c7.61,88.58,44.08,173.81,104.74,238.58-.25.86-.77,1.09-.97,1.94-3.5,14.85-1.37,30.37-1.94,45.58-91.54-87.04-139.58-198.59-139.66-325.87h32.49l3.39,31.03Z"/> <path class="cls-3" d="M86.85,457.07c-2.11,23.86-2.34,45.87-.97,69.83-1.59.23-.95,2.65-.97,3.88l-3.39-31.03h-32.49c0-15.81,1.48-29.15,2.91-44.61l34.91,1.94Z"/> <path class="cls-9" d="M948.07,454.16c1.69,16.24,2.98,28.91,2.91,45.58h-34.91c-.03-13.06-1.6-31.38-2.91-44.61l34.91-.97Z"/> <path class="cls-1" d="M888.91,647.16c-17.4,47.25-45.28,93.93-80.5,129.96-16.83-52.85-70.23-52.68-116.38-58.19-8.03-.96-16.17-3-24.25-3.88-4.62-.8-1.08-1.37,0-2.42,5.49-5.32,27.73-26.47,30.07-31.52,8.51-5.51,13.96-16.93,2.42-22.31l-126.56-31.03c-.14-10,.18-20.06,0-30.07-.11-6.52-.12-12.93-.97-19.4,10.9-9.64,45.19-42.34,50.43-53.83,6.05-13.25,3.03-32.35,3.88-46.55,8.33-.81,13.17,3.58,21.34-.48,2.45-1.22,5.42-4.88,6.79-7.27,3.07-5.37,20.51-49.09,21.34-54.31,2.99-18.86-5.78-34.6-26.19-34.43,5.8-19.58,10.97-44.7,13.58-64.98,4.75-2.03,22.7,12.99,24.73,12.61.74-.14,6.86-8.68,10.67-10.67,11.42-5.96,65.08-5.84,76.62,0,8.37,4.23,5.81,10.55,20.37,7.76,2.45-.47,8.33-5.3,11.64-5.82,7.43-1.18,22.6,2.7,29.1,6.79,7.29,4.58,43.78,59.58,45.1,67.4,2.84,16.87-34.78,36.37-31.03,55.28,1.2,6.06,17.59,32.88,21.34,42.67,18.85,49.28,22.71,102.5,16.49,154.69Z"/> <path class="cls-1" d="M348.7,372.69c.15.54-.15,1.4,0,1.94.62,2.24,1.29,4.55,1.94,6.79-18.71-4.98-28.39,21.29-27.16,35.4.27,3.03,21.37,53.7,23.28,56.25,6.63,8.87,16.18,6.47,25.22,3.39,1.32,15.86-1.54,35.69,5.82,49.95,5.83,11.3,38.57,42.22,49.46,51.89-.17,6.44.24,12.96,0,19.4-.37,10.03-.75,20-.97,30.07l-128.99,32c-73.62-88.25-47.36-230.03,51.4-287.07Z"/> <path class="cls-19" d="M913.15,455.13c1.31,13.24,2.88,31.56,2.91,44.61.11,48.24-10.55,102.31-27.16,147.42,6.22-52.19,2.36-105.4-16.49-154.69-3.74-9.79-20.14-36.61-21.34-42.67-3.74-18.91,33.87-38.41,31.03-55.28-1.32-7.83-37.81-62.82-45.1-67.4-6.5-4.09-21.66-7.97-29.1-6.79-3.3.52-9.19,5.35-11.64,5.82-14.55,2.79-12-3.53-20.37-7.76-11.54-5.84-65.2-5.96-76.62,0-3.81,1.99-9.93,10.53-10.67,10.67-2.04.38-19.98-14.64-24.73-12.61,5.66-44.08,6.42-87.58-28.13-120.26-17.13-16.21-38.05-24.14-60.62-30.07-6.81-1.79-20.97-1.59-26.19-3.88-2.17-.95-12.03-10.98-16.49-13.58-7.82-4.56-22.67-10.03-31.52-11.64-30.22-5.48-67.92-.41-94.07,16l35.4,9.21c-7.83-2.21-18.48,3.26-25.22,3.88-5.28.49-12.81-2.68-22.31-.97-23,4.14-59.93,34.36-65.46,57.71-.18.77-1.38,3.84.48,3.39,1.47-4.58,31.37-17.82,31.52-13.09-10.77,9.97-17.5,19.63-22.31,33.46-13.67,39.33-.93,87.11,9.7,126.08-98.77,57.04-125.02,198.82-51.4,287.07-17.59,11.32,21.71,36.54,28.13,45.58,2.6,2.75,5.1,6.07,7.76,8.73-8.52.47-16.84,2.57-25.22,3.88-45.75,7.16-100.75,5.71-116.38,60.13-60.67-64.77-97.14-150-104.74-238.58-.36-4.24-.72-8.33-.97-12.61-1.37-23.96-1.14-45.97.97-69.83,12.74-143.96,107.18-275.66,238.1-335.57,51.69-23.65,117.99-38.68,175.06-38.79,211.26-.44,392.45,162.51,413.15,372.42Z"/> <path class="cls-7" d="M86.85,539.51l-1.94,1.45c.03-3.39-.05-6.8,0-10.18.02-1.23-.62-3.65.97-3.88.25,4.28.61,8.36.97,12.61Z"/> <path class="cls-1" d="M235.72,360.09c10.3-.83,21.58.62,32,0l27.64,40.25-24.73,43.16-44.61.97-27.64-40.25,22.31-41.7c1.96-1.63,11.74-2.16,15.03-2.42Z"/> <path class="cls-1" d="M685.72,165.15c19.32-.87,11.9,32.25-5.82,21.34-9.12-5.62-4.64-20.86,5.82-21.34Z"/> <path class="cls-4" d="m736.16 231.1c14.25-3.22 15.26 17.31 3.88 18.43-11.43 1.13-13.56-16.24-3.88-18.43z"/> <path class="cls-1" d="m245.41 298.99c10.48-2.99 14.3 12.28 5.82 14.55-12.58 3.37-12.38-12.67-5.82-14.55z"/> <path class="cls-9" d="m298.76 177.76c9.8-1.53 12.18 13.92 2.91 15.52-9.87 1.71-11.88-14.12-2.91-15.52z"/> <path class="cls-11" d="M315.73,672.37c32.24,40.66,72.98,74.27,116.87,101.83,15.21,9.55,33.3,17.05,48.01,26.19,4.56,2.83,16.85,16.04,20.85,15.52,7.1-5.27,13.49-11.39,19.88-17.46.28,2.5,8.6-2.56,9.21-2.91,57.58-32.42,112.98-70.36,153.72-123.17,4.59,1.73,9.52,2.89,14.06,4.85.54.37-.4,3.7-.48,3.88-2.34,5.05-24.58,26.2-30.07,31.52-1.08,1.05-4.62,1.63,0,2.42-18.75,15.99-37.44,31.8-57.22,46.55-3.1,2.31-24.24,15.49-24.25,16.97-.01,2.9,7.49,3.5,7.76,3.88,2.11,2.98-3.08,21.28,1.94,24.73,0,.32,0,.65,0,.97l-27.64,28.13-19.88,14.06v61.1c99.44-7.24,193.94-58.69,260.89-131.41,2.54,9.88,5.27,36.39,1.94,45.58-2.83,7.8-52.83,45.02-62.55,51.4-177.06,116.32-407.7,93.48-560.08-51.4.57-15.22-1.56-30.73,1.94-45.58,56.59,60.92,127.96,104.03,209,124.14l51.89-49.95-46.07-43.16-1.45,6.79c-.02-3.22.06-6.48,0-9.7,2.77-4.04-.46-23.58.97-25.7.4-.6,7.63-.55,8.73-3.88-7.53-6.39-16.38-11.08-24.25-16.97-19.64-14.71-38.87-30.15-56.25-47.52-2.66-2.66-5.16-5.98-7.76-8.73l-25.22-26.67c.18-2.28,13.18-5.44,15.52-6.3Z"/> <path class="cls-20" d="M808.41,777.12c.33,1.03.65,1.66.97,2.91-66.95,72.72-161.44,124.17-260.89,131.41v-61.1l19.88-14.06,27.64-28.13c-.32,18.69-.83,37.64-.97,56.25-6.56,6.27-5.11,5.24,0,13.58.27.44-.54,3.16,1.45,3.88,13.66,4.89,14.04-5.81,21.82-11.15.96-4.04-7.96-6.08-8.73-11.64-2.75-19.75,2.96-52.1.97-74.19,6.84-1.7,2.17-10.99,4.36-14.55.75-1.22,22.27-9.39,26.19-11.64,18.6-10.66,36.37-24.05,50.92-39.76,46.15,5.51,99.55,5.34,116.38,58.19Z"/> <path class="cls-20" d="M307.97,717.96c20.64,24.36,49.19,41.3,78.56,53.34-.18,4.86-.51,8.43,1.94,13.58-2.48,19.57,4.31,58.66.97,74.19-.85,3.93-11.12,9.52-2.91,15.03.02.63-.09,1.33,0,1.94,1.03,6.7,9.97,7.51,15.03,5.82,2.76-.92,3.19-6.42,4.36-8.24,1.42-2.21,11.5-4.59-1.94-10.18.02-.32-.01-.65,0-.97.57-12.83.1-29.94,0-44.61l1.45-6.79,46.07,43.16-51.89,49.95c-81.04-20.11-152.41-63.22-209-124.14.2-.85.72-1.08.97-1.94,15.63-54.42,70.63-52.97,116.38-60.13Z"/> <path class="cls-5" d="M424.35,671.4c4.76,50.82,86.6,60.32,124.14,36.85,12.74-7.96,26.02-20.95,27.16-36.85l34.91,11.64c-23.76,38.89-56.1,83.98-89.23,115.41-6.39,6.06-12.78,12.18-19.88,17.46-4,.53-16.29-12.68-20.85-15.52-35.64-35.62-65.42-75.3-91.17-118.32l34.91-10.67Z"/> <path class="cls-20" d="M684.27,672.37c-40.74,52.81-96.14,90.75-153.72,123.17-.62.35-8.93,5.41-9.21,2.91,33.12-31.44,65.46-76.52,89.23-115.41,5.82-9.53,11.46-18.84,16-29.1,19.23,6.13,38.81,11.32,57.71,18.43Z"/> <path class="cls-20" d="m389.44 682.07c25.75 43.02 55.53 82.7 91.17 118.32-14.71-9.14-32.8-16.63-48.01-26.19-43.89-27.56-84.63-61.17-116.87-101.83 18.93-6.99 38.49-12.27 57.71-18.43 4.1 10.19 10.44 18.83 16 28.13z"/> <path class="cls-21" d="M426.29,627.76c-.27,12.11-2.92,33.19-1.94,43.64l-34.91,10.67c-5.56-9.3-11.9-17.93-16-28.13-19.22,6.16-38.77,11.43-57.71,18.43-2.34.86-15.33,4.03-15.52,6.3l25.22,26.67c-6.42-9.04-45.72-34.26-28.13-45.58l128.99-32Z"/> <path class="cls-21" d="M697.85,681.1c.08-.18,1.02-3.51.48-3.88-4.54-1.96-9.47-3.12-14.06-4.85-18.89-7.11-38.48-12.29-57.71-18.43-4.55,10.26-10.18,19.56-16,29.1l-34.91-11.64c.77-10.79-1.77-31.12-1.94-43.64l126.56,31.03c11.53,5.38,6.09,16.79-2.42,22.31Z"/> <path class="cls-21" d="M692.03,718.93c-14.54,15.72-32.32,29.1-50.92,39.76-3.92,2.25-25.43,10.42-26.19,11.64-2.2,3.56,2.48,12.85-4.36,14.55-.41-4.57,1.8-7.54-3.88-8.73,3.08-4.52,9.84-8.46,3.88-14.55,19.78-14.75,38.47-30.56,57.22-46.55,8.08.88,16.21,2.92,24.25,3.88Z"/> <path class="cls-21" d="M333.19,714.08c17.38,17.38,36.61,32.81,56.25,47.52-2.14.92-2.84,7.79-2.91,9.7-29.37-12.04-57.91-28.98-78.56-53.34,8.37-1.31,16.7-3.41,25.22-3.88Z"/> <path class="cls-21" d="M403.98,808.15c-.08-4.63.81-28.73,0-30.55-.85-1.92-11.94-1.96-13.09-1.45-1.28.56-2.23,7.18-2.42,8.73-2.45-5.15-2.12-8.72-1.94-13.58.07-1.91.77-8.78,2.91-9.7,7.87,5.89,16.72,10.59,24.25,16.97-1.1,3.33-8.33,3.28-8.73,3.88-1.43,2.12,1.8,21.66-.97,25.7Z"/> <path class="cls-21" d="M606.68,776.15c-1.77-.37-9.78-.54-10.67,1.45-.8,1.8.09,25.05,0,29.58-5.02-3.46.17-21.75-1.94-24.73-.27-.38-7.77-.98-7.76-3.88,0-1.48,21.15-14.66,24.25-16.97,5.96,6.09-.8,10.03-3.88,14.55Z"/> <path class="cls-8" d="M403.98,808.15c.06,3.22-.02,6.48,0,9.7.1,14.67.57,31.78,0,44.61-11.63-7.11-17.8-1.21-17.46,11.64-8.21-5.51,2.06-11.1,2.91-15.03,3.34-15.53-3.45-54.63-.97-74.19.2-1.55,1.15-8.17,2.42-8.73,1.16-.51,12.24-.47,13.09,1.45.81,1.82-.08,25.92,0,30.55Z"/> <path class="cls-8" d="M403.98,862.46c-.01.32.02.65,0,.97-.16,3.35.48,15.13-2.42,16.49-3.17,1.48-13.19.19-15.03-3.88-.09-.61.02-1.31,0-1.94-.34-12.84,5.83-18.75,17.46-11.64Z"/> <path class="cls-19" d="M386.53,876.04c1.85,4.07,11.86,5.36,15.03,3.88,2.9-1.36,2.26-13.14,2.42-16.49,13.44,5.6,3.36,7.98,1.94,10.18-1.17,1.82-1.6,7.32-4.36,8.24-5.07,1.69-14,.88-15.03-5.82Z"/> <path class="cls-8" d="M606.68,776.15c5.68,1.19,3.47,4.16,3.88,8.73,1.99,22.09-3.72,54.45-.97,74.19.77,5.56,9.68,7.6,8.73,11.64-7.78,5.34-8.16,16.05-21.82,11.15-2-.72-1.18-3.44-1.45-3.88,2.09,3.66,9.86,1.29,14.06,1.94,5.19-2.43,2.89-31.73-14.06-15.52.14-18.61.65-37.56.97-56.25,0-.32,0-.65,0-.97.09-4.53-.8-27.78,0-29.58.89-2,8.9-1.83,10.67-1.45Z"/> <path class="cls-8" d="M595.04,864.4c-.02,2.84-1.15,11.56,0,13.58-5.11-8.34-6.56-7.31,0-13.58Z"/> <path class="cls-8" d="M595.04,877.98c-1.15-2.02-.02-10.74,0-13.58,16.96-16.21,19.25,13.09,14.06,15.52-4.2-.65-11.97,1.72-14.06-1.94Z"/> <path class="cls-17" d="M635.78,196.18c6.88,10.14,4.34,30.13.97,42.19-3.16,11.33-12.69,26.51-22.31,33.46-4.42-4.25-8.48-7.2-15.03-6.79-7.48.47-42.68,18.85-55.28,22.31-13.81,3.79-29.83,6.77-44.13,6.79l.97-157.11c8.85,1.6,23.7,7.08,31.52,11.64,4.45,2.6,14.32,12.63,16.49,13.58,5.21,2.29,19.37,2.09,26.19,3.88,22.56,5.92,43.48,13.86,60.62,30.07Z"/> <path class="cls-10" d="M663.9,316.44c-2.61,20.28-7.78,45.4-13.58,64.98-.73,2.46-1.23,5.76-1.94,7.76-3.49-1.59-5.98,15.07-7.76,6.79.47-.98.37-20.18,0-21.82-.51-2.25-3.39-3.94-4.85-5.33-1.59-1.52-4.16-.75-3.88-3.88,2.94-27.85,4.51-71.96-17.46-93.1,9.61-6.95,19.14-22.13,22.31-33.46,3.37-12.05,5.91-32.04-.97-42.19,34.54,32.68,33.79,76.18,28.13,120.26Z"/> <path class="cls-10" d="M376.83,285.41c-12.37,22.7-11.57,48.82-8.73,73.71.26,2.31-.65,4.67.97,6.79-4.52,1.59-3.33,3.41-3.88,3.88-.26.22-4.89.45-5.82,3.39-1.35,4.29.36,18.56.97,23.76-8.66-2.15-6.44-11.57-8.73-19.88-.29-1.04-1.06-4.35-2.91-2.42-.15-.54.15-1.4,0-1.94-10.63-38.97-23.37-86.75-9.7-126.08l37.82,38.79Z"/> <path class="cls-17" d="M500.97,137.02l-.97,157.11c-25.69.03-50.46-8.49-74.19-17.46s-31.87-22.67-48.98,8.73l-37.82-38.79c4.81-13.83,11.53-23.49,22.31-33.46-.15-4.72-30.05,8.52-31.52,13.09-1.87.44-.67-2.62-.48-3.39,5.53-23.34,42.47-53.56,65.46-57.71,9.5-1.71,17.03,1.46,22.31.97,6.74-.62,17.38-6.09,25.22-3.88l-35.4-9.21c26.16-16.41,63.86-21.48,94.07-16Z"/> <path class="cls-15" d="M405.44,169.03c8.95-.21,47.73,10.57,49.95,19.88,3.67,15.44-24.06,29.15-33.94,40.73-3.83,4.48-6.06,12.25-8.73,15.52-.34.42-6.19-.9-6.3,6.3-5.23-14.04,6.59-28.93,16-38.31-15.44-3.66-31.53-1.14-46.07,4.36l25.7-25.7h-40.73c12.33-9.25,27.89-22.42,44.13-22.79Z"/> <path class="cls-13" d="M640.63,400.82c-2.66,19.56-8.43,38.49-10.67,58.19-.61,5.34-3.6,10.74-1.45,16.49l19.88,1.94c-8.17,4.07-13.01-.32-21.34.48-.85,14.21,2.17,33.31-3.88,46.55-5.25,11.49-39.53,44.19-50.43,53.83-16.37,14.48-50.67,43.35-72.74,43.64l.97-49.46c7.83-.11,17.94-1.51,16.49-12.61-1.07-8.17-15.96-3.23-17.46-5.33-.56-.79-.07-15.53.97-17.94,19.97-.06,39.91-7.14,54.31-20.85-1.01-4-19.22,5.48-22.79,6.3-5.73,1.32-13.98,2.42-19.88,2.91-19.57.72-10.77-9.52-12.61-23.28,6.9-.04,13.2-1.75,17.46-7.27-.08-3.19-2.86-.6-3.88-.48l-13.58-1.45,2.91-83.89c10.18,2.81,15.97,33.01,31.52,42.67,14.27,8.87,54.83,12.19,69.83,5.82,9.14-3.88,16.18-17.58,18.91-26.67,1.94-6.46,2.52-27.86,8.24-29.58,2.21-.66,6.91.63,9.21,0Z"/> <path class="cls-13" d="M502.91,408.58l-2.91,83.89,13.58,1.45c-11.34,1.31-18.96,3.36-30.55-.97,1.78,7.36,10.48,8.77,16.97,8.73,1.84,13.76-6.97,24,12.61,23.28-22.54,1.86-43.92-1.47-64.49-10.67-8.07,2.19,21.23,16.72,23.28,17.46,9.8,3.54,19.24,4.88,29.58,4.85-1.04,2.41-1.53,17.15-.97,17.94,1.5,2.11,16.39-2.83,17.46,5.33-3.79-5.77-32.92-3.91-33.94.48-2.45,10.53,10.5,12.22,17.46,12.12l-.97,49.46c-3.37.05-21.37-5.27-24.73-6.79-1.03-.47.06-2.41-.97-2.91-20.09-9.82-29.09-20.41-45.58-34.91-.07-.06-1.01,1.36-1.45.97-10.89-9.66-43.63-40.59-49.46-51.89-7.36-14.25-4.5-34.09-5.82-49.95-.48-5.71-.08-10.96-.97-17.46-2.73-19.84-10.28-39.06-11.64-59.16,3.02,1.16,9.72,1.08,11.15,1.94,3.07,1.85,6.26,37.51,16.97,48.98,18.62,19.93,77.2,9.63,92.14-14.55,5.36-8.67,9.12-31.55,23.28-27.64Z"/> <path class="cls-13" d="M614.44,271.83c21.97,21.14,20.4,65.25,17.46,93.1-9.05.03-18.12-1.4-27.16-1.94v-1.94c.07-.01-.15-1.15.97-.97,4.23,2.67,14.64,1.5,19.88,1.94,2.04-18.59,5.58-73.48-17.46-80.5-11.43-3.48-25.83,9.18-36.85,13.58-21.92,8.74-46.52,16.4-70.31,16.49-23.2.08-50.8-7.81-72.25-16.49-20.31-8.21-30.02-26.64-46.07-1.45-6.24,9.79-8.78,20.48-9.7,32-.55,6.87,1.91,32.97.97,35.88-.19.59-1.93,1.66-2.42,2.42l-3.39-4.85c-2.84-24.89-3.64-51.01,8.73-73.71,17.11-31.4,25.66-17.54,48.98-8.73s48.51,17.49,74.19,17.46c14.3-.02,30.32-3,44.13-6.79,12.6-3.46,47.8-21.83,55.28-22.31,6.55-.41,10.61,2.54,15.03,6.79Z"/> <path class="cls-6" d="M640.63,395.97c-.16.34-6.14,2.74-7.27,1.94-3.3-1.27-5.08-27.94,2.42-29.1,1.46,1.4,4.34,3.08,4.85,5.33.37,1.64.47,20.84,0,21.82Z"/> <path class="cls-6" d="M365.19,369.78c6.25,1.63,4.81,26.69,1.45,28.13-1.93.83-4.54-.53-6.3-.97-.61-5.2-2.32-19.47-.97-23.76.93-2.94,5.56-3.17,5.82-3.39Z"/> <path class="cls-13" d="M648.38,477.44l-19.88-1.94c-2.15-5.75.85-11.15,1.45-16.49,5.66,2.76,12.1,3.29,16.49-1.45,2.1-2.27,16.76-37.78,17.46-41.7,2.51-14.06-1.09-24.52-17.46-20.85.96-1.82,1.23-3.83,1.94-5.82s1.21-5.3,1.94-7.76c20.41-.17,29.18,15.57,26.19,34.43-.83,5.22-18.26,48.95-21.34,54.31-1.37,2.4-4.34,6.05-6.79,7.27Z"/> <path class="cls-16" d="M629.96,459.01c2.24-19.71,8.01-38.63,10.67-58.19,3.55-.97,4.26-2.86,5.82-5.82,16.37-3.67,19.97,6.79,17.46,20.85-.7,3.92-15.36,39.44-17.46,41.7-4.39,4.75-10.82,4.22-16.49,1.45Z"/> <path class="cls-12" d="M512.61,524.96c5.9-.49,14.15-1.59,19.88-2.91,3.58-.82,21.78-10.3,22.79-6.3-14.4,13.71-34.34,20.79-54.31,20.85-10.34.03-19.78-1.31-29.58-4.85-2.05-.74-31.35-15.27-23.28-17.46,20.58,9.2,41.95,12.53,64.49,10.67Z"/> <path class="cls-12" d="M517.46,559.87c1.46,11.1-8.66,12.5-16.49,12.61-6.95.09-19.9-1.59-17.46-12.12,1.02-4.39,30.15-6.25,33.94-.48Z"/> <path class="cls-12" d="M513.58,493.92c1.02-.12,3.8-2.71,3.88.48-4.26,5.53-10.56,7.23-17.46,7.27-6.49.04-15.2-1.37-16.97-8.73,11.59,4.33,19.21,2.28,30.55.97Z"/> <path class="cls-16" d="M573.71,597.7c.18,10-.14,20.06,0,30.07.17,12.52,2.71,32.86,1.94,43.64-1.14,15.91-14.42,28.89-27.16,36.85.29-2.57-1.03-.93-2.91-1.94-7.09-3.81-39.88-29.98-43.64-35.88-.46-.72-1.3-.02-1.94-2.91-.5-2.25-.54-17.54,1.45-18.43,31.2.57,47.09-38.67,72.25-51.4Z"/> <path class="cls-16" d="M500,621.94c22.07-.3,56.36-29.16,72.74-43.64.85,6.47.86,12.88.97,19.4-25.16,12.73-41.05,51.97-72.25,51.4-1.99.88-1.95,16.18-1.45,18.43l-72.74-69.83c.24-6.44-.17-12.96,0-19.4.44.39,1.39-1.03,1.45-.97,16.5,14.51,25.49,25.09,45.58,34.91,1.03.5-.06,2.44.97,2.91,3.36,1.52,21.36,6.83,24.73,6.79Z"/> <path class="cls-13" d="M500,667.53c.64,2.89,1.48,2.19,1.94,2.91l-1.45,41.7c3.08,2.18,41.26.02,45.1-5.82,1.88,1.01,3.2-.63,2.91,1.94-37.54,23.47-119.38,13.97-124.14-36.85-.98-10.45,1.67-31.53,1.94-43.64.22-10.07.6-20.03.97-30.07l72.74,69.83Z"/> <path class="cls-13" d="m545.58 706.32c-3.84 5.84-42.02 8-45.1 5.82l1.45-41.7c3.76 5.9 36.56 32.07 43.64 35.88z"/> <path class="cls-13" d="M350.64,381.42c1.18,4.08,1.34,8.7,2.91,12.61-13.87-.26-19.6,2.03-18.43,16.97.4,5.11,14.29,40.38,17.46,44.61,5.45,7.27,10.58,5.73,18.43,3.39.89,6.49.49,11.75.97,17.46-9.04,3.07-18.58,5.48-25.22-3.39-1.9-2.55-23.01-53.22-23.28-56.25-1.23-14.11,8.44-40.38,27.16-35.4Z"/> <path class="cls-16" d="M353.55,394.03c.25.63.51,2.77.97,3.39,1.35,1.84,3.13,1.77,4.85,2.42,1.36,20.1,8.91,39.32,11.64,59.16-7.84,2.34-12.98,3.87-18.43-3.39-3.17-4.23-17.06-39.51-17.46-44.61-1.17-14.94,4.56-17.23,18.43-16.97Z"/> <path class="cls-13" d="M605.71,360.09c-1.7-1.08-7.23-10.55-11.15-13.58-11.3-8.72-23.28-8.84-36.85-6.79-3.52.53-30.67,9.11-32,10.67-2.38,2.78-1.84,12.59,1.94,13.58,1.64.43,27.04-7.32,32.97-7.76,5.4-.4,12.99-.34,18.43,0,4.69.29,23.63,5.29,25.7,4.85v1.94c-36.21-2.15-46.57,2.14-79.53,9.7-8.21-1.58-15.5.89-23.76.97-2.76-1.46-1.59-54.52-.48-62.07,23.8-.08,48.4-7.74,70.31-16.49,11.03-4.4,25.43-17.06,36.85-13.58,23.03,7.01,19.5,61.9,17.46,80.5-5.24-.44-15.66.73-19.88-1.94Z"/> <path class="cls-17" d="M605.71,360.09c-1.12-.18-.9.96-.97.97-2.07.44-21.01-4.56-25.7-4.85-5.44-.34-13.02-.4-18.43,0-5.93.44-31.34,8.19-32.97,7.76-3.78-.98-4.32-10.8-1.94-13.58,1.34-1.56,28.48-10.14,32-10.67,13.57-2.05,25.56-1.93,36.85,6.79,3.92,3.03,9.45,12.5,11.15,13.58Z"/> <path class="cls-13" d="M500.97,311.59c-1.1,7.55-2.28,60.61.48,62.07,8.26-.08,15.55-2.55,23.76-.97-49.15,11.27-103.68-25.25-156.14-6.79-1.62-2.12-.71-4.48-.97-6.79l3.39,4.85c.49-.77,2.23-1.83,2.42-2.42.94-2.91-1.52-29.01-.97-35.88.92-11.53,3.46-22.22,9.7-32,16.05-25.18,25.76-6.76,46.07,1.45,21.46,8.67,49.06,16.57,72.25,16.49Z"/> <path class="cls-17" d="M421.93,338.75c8.15-1.14,49.05,6.14,52.86,12.12,1.75,2.76,1.27,12.06-2.42,13.09-1.68.47-21.5-6.14-26.19-6.79-17.69-2.45-34.25-.31-51.4,3.88,3.41-9.93,16.85-20.87,27.16-22.31Z"/> <path class="cls-21" d="M525.21,372.69c32.96-7.56,43.32-11.85,79.53-9.7,9.03.54,18.1,1.97,27.16,1.94-.28,3.13,2.29,2.36,3.88,3.88-7.5,1.15-5.72,27.82-2.42,29.1,1.13.8,7.11-1.6,7.27-1.94,1.78,8.28,4.27-8.38,7.76-6.79-.71,1.99-.98,4-1.94,5.82-1.56,2.96-2.27,4.85-5.82,5.82-2.31.63-7.01-.66-9.21,0-5.72,1.72-6.3,23.12-8.24,29.58-2.73,9.09-9.77,22.79-18.91,26.67-15,6.37-55.56,3.05-69.83-5.82-15.55-9.67-21.34-39.86-31.52-42.67-14.16-3.91-17.92,18.97-23.28,27.64-14.93,24.18-73.51,34.48-92.14,14.55-10.71-11.46-13.9-47.13-16.97-48.98-1.43-.86-8.14-.78-11.15-1.94-1.72-.66-3.5-.58-4.85-2.42-.46-.62-.72-2.76-.97-3.39-1.57-3.91-1.73-8.53-2.91-12.61-.65-2.24-1.32-4.55-1.94-6.79,1.85-1.93,2.62,1.38,2.91,2.42,2.29,8.31.07,17.73,8.73,19.88,1.76.44,4.37,1.8,6.3.97,3.36-1.43,4.79-26.5-1.45-28.13.55-.47-.64-2.29,3.88-3.88,52.46-18.46,107,18.06,156.14,6.79Z"/> <path class="cls-13" d="M549.95,379.48c9.9-.87,52.46-.53,60.13,2.91,6.12,2.74,4.97,21.07,4.36,27.64-3.29,35.9-19.09,41.17-52.86,36.37-20.54-2.92-33.37-14.56-37.34-35.4-4.6-24.11,3.16-29.55,25.7-31.52Z"/> <path class="cls-14" d="m565.46 391.12c13.95-2.88 17.43 22.21 7.76 28.13-16.52 10.1-22.04-25.18-7.76-28.13z"/> <path class="cls-13" d="M412.23,379.48c10.93-.82,48.89-.95,57.22,3.88,15.15,8.78,3.19,45.32-7.76,54.31-12.97,10.65-58.5,15.33-68.37-.48-4.97-7.96-9.99-40.8-7.76-49.46,1.74-6.74,20.62-7.79,26.67-8.24Z"/> <path class="cls-10" d="m430.65 391.12c14.94-1.85 15.7 26.31 4.85 29.1-17.02 4.37-18.44-27.41-4.85-29.1z"/> </g> </svg>